<svg width="34" height="34" viewBox="0 0 34 34" fill="none" xmlns="http://www.w3.org/2000/svg">
<g clip-path="url(#clip0_15_27)">
<rect width="34" height="34" rx="8" fill="#3B836E"/>
<path d="M21.2506 9C21.2506 10.3261 20.7501 11.5978 19.8592 12.5355C18.9683 13.4732 17.7599 14 16.5 14C15.2401 14 14.0317 13.4732 13.1408 12.5355C12.2499 11.5978 11.7494 10.3261 11.7494 9C11.7494 7.67391 12.2499 6.40215 13.1408 5.46446C14.0317 4.52678 15.2401 4 16.5 4C17.7599 4 18.9683 4.52678 19.8592 5.46446C20.7501 6.40215 21.2506 7.67391 21.2506 9ZM7 27.824C7.04071 25.2004 8.0595 22.6989 9.83667 20.8587C11.6138 19.0186 14.007 17.9873 16.5 17.9873C18.993 17.9873 21.3862 19.0186 23.1633 20.8587C24.9405 22.6989 25.9593 25.2004 26 27.824C23.0196 29.2623 19.7788 30.0047 16.5 30C13.1099 30 9.89219 29.2213 7 27.824Z" stroke="#D9D9D9" stroke-width="3" stroke-linecap="round" stroke-linejoin="round"/>
</g>
<defs>
<clipPath id="clip0_15_27">
<rect width="34" height="34" fill="white"/>
</clipPath>
</defs>
</svg>
