<svg width="34" height="34" viewBox="0 0 34 34" fill="none" xmlns="http://www.w3.org/2000/svg">
<g clip-path="url(#clip0_15_24)">
<rect width="34" height="34" rx="8" fill="#3B836E"/>
<path d="M29.75 29.75L22.3876 22.3876M22.3876 22.3876C24.3802 20.3949 25.4997 17.6923 25.4997 14.8743C25.4997 12.0563 24.3802 9.35366 22.3876 7.36101C20.3949 5.36836 17.6923 4.2489 14.8743 4.2489C12.0563 4.2489 9.35366 5.36836 7.36101 7.36101C5.36836 9.35366 4.2489 12.0563 4.2489 14.8743C4.2489 17.6923 5.36836 20.3949 7.36101 22.3876C9.35366 24.3802 12.0563 25.4997 14.8743 25.4997C17.6923 25.4997 20.3949 24.3802 22.3876 22.3876Z" stroke="#D9D9D9" stroke-width="3" stroke-linecap="round" stroke-linejoin="round"/>
</g>
<defs>
<clipPath id="clip0_15_24">
<rect width="34" height="34" fill="white"/>
</clipPath>
</defs>
</svg>
