<svg width="90" height="46" viewBox="0 0 90 46" fill="none" xmlns="http://www.w3.org/2000/svg">
<rect width="45" height="45" rx="8" fill="#E64F00"/>
<path d="M45 8C45 3.58172 48.5817 0 53 0H82C86.4183 0 90 3.58172 90 8V37C90 41.4183 86.4183 45 82 45H53C48.5817 45 45 41.4183 45 37V8Z" fill="#3B836E"/>
<path d="M29.1779 15.1818C29.0075 13.7424 28.3162 12.625 27.104 11.8295C25.8919 11.0341 24.4052 10.6364 22.6438 10.6364C21.3559 10.6364 20.229 10.8447 19.2631 11.2614C18.3067 11.678 17.5586 12.2509 17.0188 12.9801C16.4885 13.7093 16.2234 14.5379 16.2234 15.4659C16.2234 16.2424 16.408 16.91 16.7773 17.4688C17.1561 18.018 17.6391 18.4773 18.2262 18.8466C18.8133 19.2064 19.4289 19.5047 20.0728 19.7415C20.7167 19.9687 21.3086 20.1534 21.8484 20.2955L24.8029 21.0909C25.5605 21.2898 26.4033 21.5644 27.3313 21.9148C28.2688 22.2652 29.1637 22.7434 30.016 23.3494C30.8777 23.946 31.588 24.7131 32.1467 25.6506C32.7054 26.5881 32.9847 27.7386 32.9847 29.1023C32.9847 30.6742 32.5728 32.0947 31.7489 33.3636C30.9345 34.6326 29.7414 35.6411 28.1694 36.3892C26.6069 37.1373 24.7082 37.5114 22.4734 37.5114C20.39 37.5114 18.5861 37.1752 17.0614 36.5028C15.5463 35.8305 14.3531 34.893 13.4819 33.6903C12.6201 32.4877 12.1325 31.0909 12.0188 29.5H15.6552C15.7499 30.5985 16.1192 31.5076 16.7631 32.2273C17.4165 32.9375 18.2404 33.4678 19.2347 33.8182C20.2385 34.1591 21.3181 34.3295 22.4734 34.3295C23.8181 34.3295 25.0255 34.1117 26.0955 33.6761C27.1656 33.2311 28.0131 32.6155 28.6381 31.8295C29.2631 31.0341 29.5756 30.1061 29.5756 29.0455C29.5756 28.0795 29.3058 27.2936 28.766 26.6875C28.2262 26.0814 27.516 25.589 26.6353 25.2102C25.7546 24.8314 24.8029 24.5 23.7802 24.2159L20.2006 23.1932C17.9279 22.5398 16.1287 21.607 14.8029 20.3949C13.4772 19.1828 12.8143 17.5966 12.8143 15.6364C12.8143 14.0076 13.2546 12.5871 14.1353 11.375C15.0254 10.1534 16.2186 9.20644 17.7148 8.53409C19.2205 7.85227 20.9014 7.51136 22.7575 7.51136C24.6325 7.51136 26.2991 7.84754 27.7575 8.51989C29.2158 9.18276 30.3711 10.0919 31.2234 11.2472C32.0851 12.4025 32.5397 13.714 32.587 15.1818H29.1779Z" fill="white"/>
<path d="M58.0149 38V8.90909H68.1854C70.2119 8.90909 71.8833 9.25947 73.1996 9.96023C74.5159 10.6515 75.496 11.5843 76.1399 12.7585C76.7839 13.9233 77.1058 15.2159 77.1058 16.6364C77.1058 17.8864 76.8833 18.9186 76.4382 19.733C76.0026 20.5473 75.425 21.1913 74.7053 21.6648C73.995 22.1383 73.2232 22.4886 72.3899 22.7159V23C73.2801 23.0568 74.175 23.3693 75.0746 23.9375C75.9742 24.5057 76.727 25.3201 77.3331 26.3807C77.9392 27.4413 78.2422 28.7386 78.2422 30.2727C78.2422 31.7311 77.9107 33.0426 77.2479 34.2074C76.585 35.3722 75.5386 36.2955 74.1087 36.9773C72.6787 37.6591 70.8179 38 68.5263 38H58.0149ZM61.5376 34.875H68.5263C70.8274 34.875 72.4609 34.4299 73.4268 33.5398C74.4022 32.6402 74.8899 31.5511 74.8899 30.2727C74.8899 29.2879 74.639 28.3788 74.1371 27.5455C73.6352 26.7027 72.9202 26.0303 71.9922 25.5284C71.0642 25.017 69.9657 24.7614 68.6967 24.7614H61.5376V34.875ZM61.5376 21.6932H68.0717C69.1323 21.6932 70.0888 21.4848 70.9411 21.0682C71.8028 20.6515 72.4846 20.0644 72.9865 19.3068C73.4979 18.5492 73.7536 17.6591 73.7536 16.6364C73.7536 15.358 73.3085 14.2737 72.4183 13.3835C71.5282 12.4839 70.1172 12.0341 68.1854 12.0341H61.5376V21.6932Z" fill="white"/>
</svg>
