<svg width="90" height="99" viewBox="0 0 90 99" fill="none" xmlns="http://www.w3.org/2000/svg">
<rect width="45" height="45" rx="8" fill="#E64F00"/>
<path d="M45 8C45 3.58172 48.5817 0 53 0H82C86.4183 0 90 3.58172 90 8V37C90 41.4183 86.4183 45 82 45H53C48.5817 45 45 41.4183 45 37V8Z" fill="#3B836E"/>
<path d="M29.1779 15.1818C29.0075 13.7424 28.3162 12.625 27.104 11.8295C25.8919 11.0341 24.4052 10.6364 22.6438 10.6364C21.3559 10.6364 20.229 10.8447 19.2631 11.2614C18.3067 11.678 17.5586 12.2509 17.0188 12.9801C16.4885 13.7093 16.2234 14.5379 16.2234 15.4659C16.2234 16.2424 16.408 16.91 16.7773 17.4688C17.1561 18.018 17.6391 18.4773 18.2262 18.8466C18.8133 19.2064 19.4289 19.5047 20.0728 19.7415C20.7167 19.9687 21.3086 20.1534 21.8484 20.2955L24.8029 21.0909C25.5605 21.2898 26.4033 21.5644 27.3313 21.9148C28.2688 22.2652 29.1637 22.7434 30.016 23.3494C30.8777 23.946 31.588 24.7131 32.1467 25.6506C32.7054 26.5881 32.9847 27.7386 32.9847 29.1023C32.9847 30.6742 32.5728 32.0947 31.7489 33.3636C30.9345 34.6326 29.7414 35.6411 28.1694 36.3892C26.6069 37.1373 24.7082 37.5114 22.4734 37.5114C20.39 37.5114 18.5861 37.1752 17.0614 36.5028C15.5463 35.8305 14.3531 34.893 13.4819 33.6903C12.6201 32.4877 12.1325 31.0909 12.0188 29.5H15.6552C15.7499 30.5985 16.1192 31.5076 16.7631 32.2273C17.4165 32.9375 18.2404 33.4678 19.2347 33.8182C20.2385 34.1591 21.3181 34.3295 22.4734 34.3295C23.8181 34.3295 25.0255 34.1117 26.0955 33.6761C27.1656 33.2311 28.0131 32.6155 28.6381 31.8295C29.2631 31.0341 29.5756 30.1061 29.5756 29.0455C29.5756 28.0795 29.3058 27.2936 28.766 26.6875C28.2262 26.0814 27.516 25.589 26.6353 25.2102C25.7546 24.8314 24.8029 24.5 23.7802 24.2159L20.2006 23.1932C17.9279 22.5398 16.1287 21.607 14.8029 20.3949C13.4772 19.1828 12.8143 17.5966 12.8143 15.6364C12.8143 14.0076 13.2546 12.5871 14.1353 11.375C15.0254 10.1534 16.2186 9.20644 17.7148 8.53409C19.2205 7.85227 20.9014 7.51136 22.7575 7.51136C24.6325 7.51136 26.2991 7.84754 27.7575 8.51989C29.2158 9.18276 30.3711 10.0919 31.2234 11.2472C32.0851 12.4025 32.5397 13.714 32.587 15.1818H29.1779Z" fill="white"/>
<path d="M58.0149 38V8.90909H68.1854C70.2119 8.90909 71.8833 9.25947 73.1996 9.96023C74.5159 10.6515 75.496 11.5843 76.1399 12.7585C76.7839 13.9233 77.1058 15.2159 77.1058 16.6364C77.1058 17.8864 76.8833 18.9186 76.4382 19.733C76.0026 20.5473 75.425 21.1913 74.7053 21.6648C73.995 22.1383 73.2232 22.4886 72.3899 22.7159V23C73.2801 23.0568 74.175 23.3693 75.0746 23.9375C75.9742 24.5057 76.727 25.3201 77.3331 26.3807C77.9392 27.4413 78.2422 28.7386 78.2422 30.2727C78.2422 31.7311 77.9107 33.0426 77.2479 34.2074C76.585 35.3722 75.5386 36.2955 74.1087 36.9773C72.6787 37.6591 70.8179 38 68.5263 38H58.0149ZM61.5376 34.875H68.5263C70.8274 34.875 72.4609 34.4299 73.4268 33.5398C74.4022 32.6402 74.8899 31.5511 74.8899 30.2727C74.8899 29.2879 74.639 28.3788 74.1371 27.5455C73.6352 26.7027 72.9202 26.0303 71.9922 25.5284C71.0642 25.017 69.9657 24.7614 68.6967 24.7614H61.5376V34.875ZM61.5376 21.6932H68.0717C69.1323 21.6932 70.0888 21.4848 70.9411 21.0682C71.8028 20.6515 72.4846 20.0644 72.9865 19.3068C73.4979 18.5492 73.7536 17.6591 73.7536 16.6364C73.7536 15.358 73.3085 14.2737 72.4183 13.3835C71.5282 12.4839 70.1172 12.0341 68.1854 12.0341H61.5376V21.6932Z" fill="white"/>
<path d="M13.7273 53.3388C13.7273 52.157 14.0085 51.12 14.571 50.228C15.1335 49.3416 15.9205 48.6484 16.9318 48.1484C17.9432 47.6541 19.125 47.407 20.4773 47.407C21.8409 47.407 23.0313 47.6541 24.0483 48.1484C25.0653 48.6484 25.8551 49.3416 26.4176 50.228C26.9801 51.12 27.2614 52.157 27.2614 53.3388C27.2614 54.5206 26.9801 55.5547 26.4176 56.4411C25.8551 57.3331 25.0653 58.0263 24.0483 58.5206C23.0313 59.0206 21.8409 59.2706 20.4773 59.2706C19.125 59.2706 17.9432 59.0206 16.9318 58.5206C15.9205 58.0263 15.1335 57.3331 14.571 56.4411C14.0085 55.5547 13.7273 54.5206 13.7273 53.3388ZM15.5341 53.3388C15.5341 54.2365 15.7642 54.9751 16.2244 55.5547C16.6847 56.1342 17.2898 56.5632 18.0398 56.8416C18.7898 57.12 19.6023 57.2592 20.4773 57.2592C21.3523 57.2592 22.1676 57.12 22.9233 56.8416C23.679 56.5632 24.2898 56.1342 24.7557 55.5547C25.2216 54.9751 25.4545 54.2365 25.4545 53.3388C25.4545 52.4411 25.2216 51.7024 24.7557 51.1229C24.2898 50.5433 23.679 50.1143 22.9233 49.8359C22.1676 49.5575 21.3523 49.4183 20.4773 49.4183C19.6023 49.4183 18.7898 49.5575 18.0398 49.8359C17.2898 50.1143 16.6847 50.5433 16.2244 51.1229C15.7642 51.7024 15.5341 52.4411 15.5341 53.3388ZM13.7273 67.6591C13.7273 66.4318 14.017 65.375 14.5966 64.4886C15.1761 63.6023 15.9744 62.9205 16.9915 62.4432C18.0085 61.9659 19.1705 61.7273 20.4773 61.7273C21.8068 61.7273 22.9801 61.9716 23.9972 62.4602C25.0199 62.9545 25.8182 63.642 26.392 64.5227C26.9716 65.4091 27.2614 66.4432 27.2614 67.625C27.2614 68.5455 27.0909 69.375 26.75 70.1136C26.4091 70.8523 25.9318 71.4574 25.3182 71.929C24.7045 72.4006 23.9886 72.6932 23.1705 72.8068V70.7955C23.767 70.642 24.2955 70.3011 24.7557 69.7727C25.2216 69.25 25.4545 68.5455 25.4545 67.6591C25.4545 66.875 25.25 66.1875 24.8409 65.5966C24.4375 65.0114 23.8665 64.554 23.1278 64.2244C22.3949 63.9006 21.5341 63.7386 20.5455 63.7386C19.5341 63.7386 18.6534 63.8977 17.9034 64.2159C17.1534 64.5398 16.571 64.9943 16.1562 65.5795C15.7415 66.1705 15.5341 66.8636 15.5341 67.6591C15.5341 68.1818 15.625 68.6562 15.8068 69.0824C15.9886 69.5085 16.25 69.8693 16.5909 70.1648C16.9318 70.4602 17.3409 70.6705 17.8182 70.7955V72.8068C17.0455 72.6932 16.3494 72.4119 15.7301 71.9631C15.1165 71.5199 14.6278 70.9318 14.2642 70.1989C13.9062 69.4716 13.7273 68.625 13.7273 67.6591ZM14 75.7472H27.0909V77.7585H14V75.7472ZM29.2727 76.7699C29.2727 76.3778 29.4062 76.0398 29.6733 75.7557C29.9403 75.4773 30.2614 75.3381 30.6364 75.3381C31.0114 75.3381 31.3324 75.4773 31.5994 75.7557C31.8665 76.0398 32 76.3778 32 76.7699C32 77.1619 31.8665 77.4972 31.5994 77.7756C31.3324 78.0597 31.0114 78.2017 30.6364 78.2017C30.2614 78.2017 29.9403 78.0597 29.6733 77.7756C29.4062 77.4972 29.2727 77.1619 29.2727 76.7699ZM13.6932 85.2947C13.6932 84.4652 13.8494 83.7124 14.1619 83.0362C14.4801 82.3601 14.9375 81.8232 15.5341 81.4254C16.1364 81.0277 16.8636 80.8288 17.7159 80.8288C18.4659 80.8288 19.0739 80.9766 19.5398 81.272C20.0114 81.5675 20.3807 81.9624 20.6477 82.4567C20.9148 82.951 21.1136 83.4964 21.2443 84.093C21.3807 84.6953 21.4886 85.3004 21.5682 85.9084C21.6705 86.7038 21.7472 87.3487 21.7983 87.843C21.8551 88.343 21.9489 88.7067 22.0795 88.9339C22.2102 89.1669 22.4375 89.2834 22.7614 89.2834H22.8295C23.6705 89.2834 24.3239 89.0533 24.7898 88.593C25.2557 88.1385 25.4886 87.4482 25.4886 86.522C25.4886 85.5618 25.2784 84.8089 24.858 84.2635C24.4375 83.718 23.9886 83.3345 23.5114 83.1129L24.1932 81.2038C24.9886 81.5447 25.608 81.9993 26.0511 82.5675C26.5 83.1413 26.8125 83.7663 26.9886 84.4425C27.1705 85.1243 27.2614 85.7947 27.2614 86.4538C27.2614 86.8743 27.2102 87.3572 27.108 87.9027C27.0114 88.4538 26.8097 88.9851 26.5028 89.4964C26.196 90.0135 25.733 90.4425 25.1136 90.7834C24.4943 91.1243 23.6648 91.2947 22.625 91.2947H14V89.2834H15.7727V89.1811C15.4886 89.0447 15.1847 88.8175 14.8608 88.4993C14.5369 88.1811 14.2614 87.7578 14.0341 87.2294C13.8068 86.701 13.6932 86.0561 13.6932 85.2947ZM15.5 85.6016C15.5 86.397 15.6562 87.0675 15.9687 87.6129C16.2812 88.1641 16.6847 88.5788 17.179 88.8572C17.6733 89.1413 18.1932 89.2834 18.7386 89.2834H20.5795C20.4773 89.1982 20.3835 89.0107 20.2983 88.7209C20.2188 88.4368 20.1477 88.1072 20.0852 87.7322C20.0284 87.3629 19.9773 87.0021 19.9318 86.6499C19.892 86.3033 19.858 86.022 19.8295 85.8061C19.7614 85.2834 19.6506 84.7947 19.4972 84.3402C19.3494 83.8913 19.125 83.5277 18.8239 83.2493C18.5284 82.9766 18.125 82.8402 17.6136 82.8402C16.9148 82.8402 16.3864 83.0987 16.0284 83.6158C15.6761 84.1385 15.5 84.8004 15.5 85.6016ZM31.4545 96.9773H14V94.9659H31.4545L31.4545 96.9773Z" fill="white"/>
<path d="M59 48.2198L72.0909 48.2198V50.2312L59 50.2312V48.2198ZM74.2727 49.2425C74.2727 48.8505 74.4062 48.5124 74.6733 48.2283C74.9403 47.9499 75.2614 47.8107 75.6364 47.8107C76.0114 47.8107 76.3324 47.9499 76.5994 48.2283C76.8665 48.5124 77 48.8505 77 49.2425C77 49.6346 76.8665 49.9698 76.5994 50.2482C76.3324 50.5323 76.0114 50.6744 75.6364 50.6744C75.2614 50.6744 74.9403 50.5323 74.6733 50.2482C74.4062 49.9698 74.2727 49.6346 74.2727 49.2425ZM72.0909 59.6083H70.3864V52.8242H72.0909V59.6083ZM75.2273 54.8015V56.8129H62.75C62.1818 56.8129 61.7557 56.8952 61.4716 57.06C61.1932 57.2305 61.0057 57.4464 60.9091 57.7077C60.8182 57.9748 60.7727 58.256 60.7727 58.5515C60.7727 58.7731 60.7841 58.9549 60.8068 59.0969C60.8352 59.239 60.858 59.3526 60.875 59.4379L59.0682 59.8469C59.017 59.7106 58.9659 59.5202 58.9148 59.2759C58.858 59.0316 58.8295 58.7219 58.8295 58.3469C58.8295 57.7788 58.9517 57.2219 59.196 56.6765C59.4403 56.1367 59.8125 55.6879 60.3125 55.3299C60.8125 54.9776 61.4432 54.8015 62.2045 54.8015H75.2273ZM58.7273 67.9819C58.7273 66.7205 59.0057 65.6325 59.5625 64.7177C60.125 63.8086 60.9091 63.1069 61.9148 62.6126C62.9261 62.1239 64.1023 61.8796 65.4432 61.8796C66.7841 61.8796 67.9659 62.1239 68.9886 62.6126C70.017 63.1069 70.8182 63.7944 71.392 64.6751C71.9716 65.5614 72.2614 66.5955 72.2614 67.7773C72.2614 68.4592 72.1477 69.1325 71.9205 69.7972C71.6932 70.462 71.3239 71.0671 70.8125 71.6126C70.3068 72.158 69.6364 72.5927 68.8011 72.9165C67.9659 73.2404 66.9375 73.4023 65.7159 73.4023H64.8636V63.3114H66.6023V71.3569C67.3409 71.3569 68 71.2092 68.5795 70.9137C69.1591 70.6239 69.6165 70.2092 69.9517 69.6694C70.2869 69.1353 70.4545 68.5046 70.4545 67.7773C70.4545 66.9762 70.2557 66.283 69.858 65.6978C69.4659 65.1183 68.9545 64.6722 68.3239 64.3597C67.6932 64.0472 67.017 63.891 66.2955 63.891H65.1364C64.1477 63.891 63.3097 64.0614 62.6222 64.4023C61.9403 64.7489 61.4205 65.229 61.0625 65.8427C60.7102 66.4563 60.5341 67.1694 60.5341 67.9819C60.5341 68.5103 60.608 68.9876 60.7557 69.4137C60.9091 69.8455 61.1364 70.2177 61.4375 70.5302C61.7443 70.8427 62.125 71.0842 62.5795 71.2546L62.0341 73.1978C61.375 72.9933 60.7955 72.6495 60.2955 72.1665C59.8011 71.6836 59.4148 71.087 59.1364 70.3768C58.8636 69.6665 58.7273 68.8683 58.7273 67.9819Z" fill="white"/>
</svg>
